<svg xmlns="http://www.w3.org/2000/svg" viewBox="0 0 120 120" fill="none">
  <defs>
    <linearGradient id="moonGradient" x1="0%" y1="0%" x2="100%" y2="100%">
      <stop offset="0%" style="stop-color:#6366f1"/>
      <stop offset="100%" style="stop-color:#8b5cf6"/>
    </linearGradient>
    <linearGradient id="codeGradient" x1="0%" y1="0%" x2="100%" y2="100%">
      <stop offset="0%" style="stop-color:#22d3ee"/>
      <stop offset="100%" style="stop-color:#6366f1"/>
    </linearGradient>
    <filter id="glow" x="-50%" y="-50%" width="200%" height="200%">
      <feGaussianBlur stdDeviation="2" result="coloredBlur"/>
      <feMerge>
        <feMergeNode in="coloredBlur"/>
        <feMergeNode in="SourceGraphic"/>
      </feMerge>
    </filter>
  </defs>

  <!-- Background circle -->
  <circle cx="60" cy="60" r="56" fill="#0f172a"/>
  <circle cx="60" cy="60" r="56" fill="none" stroke="url(#moonGradient)" stroke-width="2"/>

  <!-- Moon crescent -->
  <path d="M75 30 A30 30 0 1 0 75 90 A24 24 0 1 1 75 30" fill="url(#moonGradient)" opacity="0.9"/>

  <!-- Stars scattered throughout -->
  <circle cx="25" cy="30" r="2" fill="#fcd34d" filter="url(#glow)"/>
  <circle cx="18" cy="50" r="1.5" fill="#fcd34d" filter="url(#glow)"/>
  <circle cx="22" cy="75" r="1" fill="#fcd34d" filter="url(#glow)"/>
  <circle cx="30" cy="95" r="1.5" fill="#fcd34d" filter="url(#glow)"/>
  <circle cx="50" cy="20" r="1" fill="#fcd34d" filter="url(#glow)"/>
  <circle cx="75" cy="25" r="1.5" fill="#fcd34d" filter="url(#glow)"/>
  <circle cx="95" cy="45" r="2" fill="#fcd34d" filter="url(#glow)"/>
  <circle cx="100" cy="70" r="1" fill="#fcd34d" filter="url(#glow)"/>
  <circle cx="90" cy="90" r="1.5" fill="#fcd34d" filter="url(#glow)"/>
  <circle cx="60" cy="100" r="1" fill="#fcd34d" filter="url(#glow)"/>
  <circle cx="40" cy="15" r="1" fill="#fcd34d" filter="url(#glow)"/>

  <!-- Code brackets representing PR/code review -->
  <g filter="url(#glow)">
    <!-- Left bracket < -->
    <path d="M50 52 L42 60 L50 68" stroke="url(#codeGradient)" stroke-width="3" stroke-linecap="round" stroke-linejoin="round" fill="none"/>
    <!-- Right bracket > -->
    <path d="M70 52 L78 60 L70 68" stroke="url(#codeGradient)" stroke-width="3" stroke-linecap="round" stroke-linejoin="round" fill="none"/>
    <!-- Merge arrow (pull request symbol) -->
    <circle cx="60" cy="54" r="3" fill="#22d3ee"/>
    <line x1="60" y1="57" x2="60" y2="66" stroke="#22d3ee" stroke-width="2"/>
    <circle cx="60" cy="69" r="3" fill="#22d3ee"/>
  </g>

  <!-- Z's for sleeping -->
  <g fill="#a5b4fc" font-family="monospace" font-weight="bold" opacity="0.8">
    <text x="80" y="48" font-size="10">z</text>
    <text x="88" y="40" font-size="8">z</text>
    <text x="94" y="34" font-size="6">z</text>
  </g>
</svg>
